# xmcd
#
# Track frame offsets: 
#        150
#        20075
#        45612
#        65262
#        85550
#        110825
#        126350
#        149115
#        168875
#        191827
#        225427
#        240245
#
# Disc length: 3430 seconds
#
# Revision: 0
# Processed by: cddbd v1.5.1PL0 Copyright (c) Steve Scherf et al.
# Submitted via: ExactAudioCopy v0.95a5
#
DISCID=a10d640c
DTITLE=Paul Oscher - The deep blues of Paul Ocher
DYEAR=1995
DGENRE=Blues
TTITLE0=Satan's Woman
TTITLE1=Dirty Dealin' Mama
TTITLE2=Maxine
TTITLE3=Robin Lee
TTITLE4=Sweet Black Angel
TTITLE5=Money Makin' Woman
TTITLE6=Forget About Your Used To Be
TTITLE7=Traffic Problem
TTITLE8=100% Of Your Love
TTITLE9=Tin Pan Alley
TTITLE10=Christmas Blues
TTITLE11=Summer Jam
EXTD=
EXTT0=
EXTT1=
EXTT2=
EXTT3=
EXTT4=
EXTT5=
EXTT6=
EXTT7=
EXTT8=
EXTT9=
EXTT10=
EXTT11=
PLAYORDER=
